REM GENRE Anime
REM DISCID F211631F
REM COMMENT "ExactAudioCopy v0.99pb5"
FILE "<Filename>.iso" BINARY
  TRACK 01 MODEx/2xxx
    INDEX 01 00:00:00
  TRACK 02 MODEx/2xxx
    INDEX 00 07:04:02
FILE "03.dummy" WAVE
  TRACK 03 AUDIO
    PREGAP 00:03:00
    INDEX 01 00:00:00
FILE "04.dummy" WAVE
  TRACK 04 AUDIO
    INDEX 01 00:00:00
FILE "05.dummy" WAVE
  TRACK 05 AUDIO
    INDEX 01 00:00:00
FILE "06.dummy" WAVE
  TRACK 06 AUDIO
    INDEX 01 00:00:00
FILE "07.dummy" WAVE
  TRACK 07 AUDIO
    INDEX 01 00:00:00
FILE "08.dummy" WAVE
  TRACK 08 AUDIO
    INDEX 01 00:00:00
FILE "09.dummy" WAVE
  TRACK 09 AUDIO
    INDEX 01 00:00:00
FILE "10.dummy" WAVE
  TRACK 10 AUDIO
    INDEX 01 00:00:00
FILE "11.dummy" WAVE
  TRACK 11 AUDIO
    INDEX 01 00:00:00
FILE "12.dummy" WAVE
  TRACK 12 AUDIO
    INDEX 01 00:00:00
FILE "13.dummy" WAVE
  TRACK 13 AUDIO
    INDEX 01 00:00:00
FILE "14.dummy" WAVE
  TRACK 14 AUDIO
    INDEX 01 00:00:00
FILE "15.dummy" WAVE
  TRACK 15 AUDIO
    INDEX 01 00:00:00
FILE "16.dummy" WAVE
  TRACK 16 AUDIO
    INDEX 01 00:00:00
FILE "17.dummy" WAVE
  TRACK 17 AUDIO
    INDEX 01 00:00:00
FILE "18.dummy" WAVE
  TRACK 18 AUDIO
    INDEX 01 00:00:00
FILE "19.dummy" WAVE
  TRACK 19 AUDIO
    INDEX 01 00:00:00
FILE "20.dummy" WAVE
  TRACK 20 AUDIO
    INDEX 01 00:00:00
FILE "21.dummy" WAVE
  TRACK 21 AUDIO
    INDEX 01 00:00:00
FILE "22.dummy" WAVE
  TRACK 22 AUDIO
    INDEX 01 00:00:00
FILE "23.dummy" WAVE
  TRACK 23 AUDIO
    INDEX 01 00:00:00
FILE "24.dummy" WAVE
  TRACK 24 AUDIO
    INDEX 01 00:00:00
FILE "25.dummy" WAVE
  TRACK 25 AUDIO
    INDEX 01 00:00:00
FILE "26.dummy" WAVE
  TRACK 26 AUDIO
    INDEX 01 00:00:00
FILE "27.dummy" WAVE
  TRACK 27 AUDIO
    INDEX 01 00:00:00
FILE "28.dummy" WAVE
  TRACK 28 AUDIO
    INDEX 01 00:00:00
FILE "29.dummy" WAVE
  TRACK 29 AUDIO
    INDEX 01 00:00:00
FILE "30.dummy" WAVE
  TRACK 30 AUDIO
    INDEX 01 00:00:00
FILE "31.dummy" WAVE
  TRACK 31 AUDIO
    INDEX 01 00:00:00
